<mxfile host="app.diagrams.net" modified="2023-10-24T00:28:07.627Z" agent="Mozilla/5.0 (Windows NT 10.0; Win64; x64) AppleWebKit/537.36 (KHTML, like Gecko) Chrome/118.0.0.0 Safari/537.36" version="22.0.6" etag="X4ZzVW6xr2gZVmEJCiTO" type="github">
  <diagram name="PÃ¡gina-1" id="KjPXG6-50c0MCaF2SE6T">
    <mxGraphModel>
      <root>
        <mxCell id="0" />
        <mxCell id="1" parent="0" />
      </root>
    </mxGraphModel>
  </diagram>
</mxfile>
